<svg id="svg" version="1.1" xmlns="http://www.w3.org/2000/svg" xmlns:xlink="http://www.w3.org/1999/xlink" width="400" height="87.46666666666667" viewBox="0, 0, 400,87.46666666666667"><g id="svgg"><path id="path0" d="M25.958 1.180 C 25.586 1.397,25.562 1.909,25.930 1.768 C 26.075 1.712,26.799 1.667,27.539 1.667 C 28.874 1.667,28.883 1.664,28.583 1.333 C 28.246 0.961,26.509 0.859,25.958 1.180 M33.276 1.305 C 33.015 1.593,33.018 1.631,33.332 1.915 C 33.621 2.177,33.667 2.182,33.667 1.955 C 33.667 1.810,33.787 1.667,33.935 1.637 C 34.168 1.590,34.160 1.544,33.879 1.290 C 33.569 1.010,33.542 1.011,33.276 1.305 M56.777 1.303 C 56.374 1.748,56.410 2.060,56.837 1.831 C 57.022 1.732,57.242 1.693,57.325 1.745 C 57.626 1.931,57.652 1.538,57.356 1.271 C 57.075 1.017,57.035 1.019,56.777 1.303 M63.292 1.180 C 62.776 1.480,62.978 1.667,63.819 1.667 C 64.322 1.667,64.669 1.747,64.717 1.875 C 64.768 2.011,64.839 1.974,64.924 1.768 C 65.171 1.167,64.023 0.754,63.292 1.180 M82.458 1.180 C 82.298 1.273,82.167 1.511,82.167 1.708 C 82.167 1.987,82.211 2.022,82.367 1.867 C 82.477 1.757,82.976 1.667,83.476 1.667 C 84.374 1.667,84.381 1.663,84.083 1.333 C 83.757 0.972,82.946 0.896,82.458 1.180 M107.917 1.333 C 107.562 1.725,107.443 1.702,109.717 1.668 C 110.910 1.650,111.599 1.708,111.759 1.841 C 112.133 2.151,112.072 1.617,111.695 1.276 C 111.208 0.835,108.328 0.879,107.917 1.333 M143.292 1.180 C 142.930 1.391,142.897 2.167,143.250 2.167 C 143.387 2.167,143.500 2.054,143.500 1.917 C 143.500 1.715,143.762 1.667,144.859 1.667 C 146.208 1.667,146.216 1.664,145.917 1.333 C 145.580 0.961,143.842 0.859,143.292 1.180 M275.418 1.332 C 275.146 1.633,275.143 1.667,275.391 1.667 C 275.594 1.667,275.673 1.830,275.689 2.292 C 275.703 2.679,275.740 2.774,275.784 2.542 C 275.824 2.335,275.964 2.167,276.095 2.167 C 276.433 2.167,276.390 1.603,276.027 1.274 C 275.740 1.015,275.701 1.019,275.418 1.332 M283.451 1.847 C 282.845 2.469,282.727 2.667,282.962 2.667 C 283.132 2.667,283.483 2.446,283.742 2.175 C 284.001 1.905,284.361 1.661,284.542 1.634 C 284.864 1.585,284.864 1.576,284.561 1.305 C 284.266 1.041,284.209 1.069,283.451 1.847 M296.766 1.315 C 296.448 1.668,296.559 1.807,297.122 1.760 C 297.652 1.716,297.712 1.593,297.361 1.275 C 297.074 1.015,297.036 1.018,296.766 1.315 M298.917 1.333 C 298.751 1.517,298.683 1.672,298.766 1.678 C 299.347 1.722,301.761 1.628,301.830 1.558 C 302.072 1.316,301.173 1.000,300.244 1.000 C 299.430 1.000,299.156 1.069,298.917 1.333 M336.250 1.333 C 335.952 1.663,335.959 1.667,336.808 1.667 C 337.332 1.667,337.667 1.740,337.667 1.854 C 337.667 1.982,337.747 1.974,337.921 1.830 C 338.148 1.642,338.145 1.586,337.895 1.309 C 337.519 0.894,336.636 0.907,336.250 1.333 M355.442 1.305 C 355.089 1.695,355.053 2.301,355.400 2.013 C 355.580 1.864,355.654 1.869,355.721 2.035 C 355.776 2.172,355.812 2.144,355.820 1.958 C 355.831 1.724,355.986 1.667,356.609 1.667 C 357.374 1.667,357.381 1.662,357.083 1.333 C 356.700 0.909,355.814 0.894,355.442 1.305 M358.585 1.332 C 358.289 1.658,358.292 1.667,358.691 1.667 C 358.916 1.667,359.190 1.757,359.300 1.867 C 359.456 2.022,359.500 2.009,359.500 1.809 C 359.500 1.259,358.923 0.958,358.585 1.332 M360.777 1.303 C 360.374 1.748,360.410 2.060,360.837 1.831 C 361.022 1.732,361.242 1.693,361.325 1.745 C 361.626 1.931,361.652 1.538,361.356 1.271 C 361.075 1.017,361.035 1.019,360.777 1.303 M369.251 1.332 C 368.957 1.657,368.958 1.667,369.308 1.667 C 369.595 1.667,369.667 1.766,369.667 2.167 C 369.667 2.653,370.659 2.960,370.879 2.542 C 371.090 2.140,369.553 0.998,369.251 1.332 M376.773 1.308 C 376.522 1.585,376.519 1.642,376.746 1.830 C 376.953 2.001,377.000 1.998,377.003 1.812 C 377.005 1.628,377.032 1.626,377.142 1.800 C 377.253 1.975,377.316 1.972,377.472 1.783 C 377.819 1.365,377.139 0.903,376.773 1.308 M381.125 1.180 C 380.392 1.607,380.823 1.750,382.666 1.694 C 384.352 1.642,384.501 1.662,384.513 1.944 C 384.521 2.121,384.562 2.162,384.611 2.041 C 384.657 1.925,384.764 1.874,384.848 1.925 C 384.931 1.977,385.000 1.868,385.000 1.682 C 385.000 1.050,382.012 0.663,381.125 1.180 M387.433 1.315 C 387.114 1.668,387.226 1.807,387.788 1.760 C 388.318 1.716,388.379 1.593,388.028 1.275 C 387.740 1.015,387.702 1.018,387.433 1.315 M392.773 1.308 C 392.522 1.585,392.519 1.642,392.746 1.830 C 392.953 2.001,393.000 1.998,393.003 1.812 C 393.005 1.628,393.032 1.626,393.142 1.800 C 393.253 1.975,393.316 1.972,393.472 1.783 C 393.819 1.365,393.139 0.903,392.773 1.308 M2.285 1.271 C 2.087 1.469,2.153 1.667,2.417 1.667 C 2.583 1.667,2.667 1.833,2.667 2.167 C 2.667 2.508,2.749 2.667,2.926 2.667 C 3.361 2.667,3.186 1.265,2.743 1.201 C 2.556 1.175,2.350 1.206,2.285 1.271 M10.348 1.918 C 9.810 2.466,9.691 2.667,9.906 2.667 C 10.068 2.667,10.417 2.434,10.683 2.149 C 11.086 1.718,11.169 1.683,11.180 1.941 C 11.190 2.177,11.215 2.191,11.288 2.000 C 11.340 1.863,11.457 1.702,11.546 1.644 C 11.747 1.513,11.554 1.166,11.282 1.168 C 11.173 1.169,10.752 1.506,10.348 1.918 M23.618 1.271 C 23.349 1.539,23.532 1.778,24.007 1.778 C 24.379 1.778,24.500 1.708,24.464 1.514 C 24.411 1.237,23.821 1.068,23.618 1.271 M31.111 1.278 C 30.907 1.482,30.997 1.667,31.300 1.667 C 31.465 1.667,31.690 1.757,31.800 1.867 C 31.956 2.022,32.000 2.011,32.000 1.817 C 32.000 1.350,31.402 0.987,31.111 1.278 M79.111 1.278 C 78.902 1.487,79.000 1.628,79.413 1.707 C 79.916 1.803,80.059 1.689,79.811 1.390 C 79.612 1.150,79.291 1.098,79.111 1.278 M85.517 1.397 C 85.364 1.581,85.418 1.644,85.788 1.715 C 86.330 1.819,86.409 1.772,86.276 1.424 C 86.153 1.105,85.770 1.091,85.517 1.397 M87.618 1.271 C 87.378 1.511,87.482 2.056,87.729 1.851 C 87.855 1.746,88.087 1.711,88.246 1.771 C 88.465 1.856,88.520 1.807,88.474 1.566 C 88.413 1.248,87.839 1.050,87.618 1.271 M96.167 1.417 C 95.997 1.621,96.008 1.667,96.230 1.667 C 96.419 1.667,96.500 1.817,96.500 2.167 C 96.500 2.635,96.540 2.667,97.139 2.667 C 98.037 2.667,98.060 2.560,97.319 1.819 C 96.597 1.097,96.469 1.052,96.167 1.417 M103.560 1.416 C 103.503 1.566,103.533 1.766,103.627 1.860 C 103.899 2.132,104.417 1.949,104.417 1.581 C 104.417 1.157,103.712 1.021,103.560 1.416 M114.285 1.271 C 114.016 1.539,114.199 1.778,114.674 1.778 C 115.046 1.778,115.167 1.708,115.130 1.514 C 115.077 1.237,114.488 1.068,114.285 1.271 M119.560 1.416 C 119.503 1.566,119.533 1.766,119.627 1.860 C 119.899 2.132,120.417 1.949,120.417 1.581 C 120.417 1.157,119.712 1.021,119.560 1.416 M132.444 1.278 C 132.235 1.487,132.334 1.628,132.746 1.707 C 133.249 1.803,133.393 1.689,133.145 1.390 C 132.945 1.150,132.624 1.098,132.444 1.278 M137.778 1.278 C 137.560 1.496,137.664 2.167,137.917 2.167 C 138.054 2.167,138.167 2.054,138.167 1.917 C 138.167 1.779,138.288 1.667,138.437 1.667 C 138.659 1.667,138.670 1.621,138.500 1.417 C 138.281 1.153,137.964 1.092,137.778 1.278 M256.173 1.410 C 256.055 1.551,255.987 1.672,256.021 1.678 C 256.809 1.824,257.016 1.792,256.967 1.533 C 256.895 1.160,256.438 1.089,256.173 1.410 M258.278 1.278 C 258.025 1.531,258.155 2.051,258.417 1.833 C 258.582 1.696,258.737 1.680,258.875 1.787 C 259.448 2.231,259.675 2.164,259.304 1.662 C 258.957 1.194,258.524 1.031,258.278 1.278 M260.196 1.662 C 259.825 2.164,260.052 2.231,260.625 1.787 C 260.763 1.680,260.918 1.696,261.083 1.833 C 261.400 2.096,261.445 1.678,261.133 1.367 C 260.821 1.054,260.592 1.126,260.196 1.662 M304.167 1.417 C 303.997 1.621,304.008 1.667,304.230 1.667 C 304.378 1.667,304.500 1.785,304.500 1.929 C 304.500 2.165,304.526 2.164,304.766 1.924 C 305.064 1.626,304.969 1.167,304.609 1.167 C 304.480 1.167,304.281 1.279,304.167 1.417 M306.227 1.416 C 306.170 1.566,306.217 1.778,306.332 1.886 C 306.494 2.038,306.559 2.036,306.618 1.875 C 306.660 1.760,306.807 1.667,306.944 1.667 C 307.325 1.667,307.108 1.257,306.695 1.197 C 306.476 1.164,306.290 1.252,306.227 1.416 M329.778 1.278 C 329.539 1.516,329.653 2.052,329.899 1.848 C 330.027 1.742,330.196 1.666,330.274 1.681 C 330.614 1.742,330.693 1.649,330.500 1.417 C 330.281 1.153,329.964 1.092,329.778 1.278 M352.183 1.397 C 352.031 1.581,352.085 1.644,352.455 1.715 C 352.996 1.819,353.076 1.772,352.942 1.424 C 352.820 1.105,352.437 1.091,352.183 1.397 M0.000 2.667 C 0.000 3.056,0.074 3.167,0.333 3.167 C 0.519 3.167,0.667 3.056,0.667 2.917 C 0.667 2.779,0.751 2.667,0.854 2.667 C 0.983 2.667,0.977 2.589,0.833 2.417 C 0.461 1.968,0.000 2.106,0.000 2.667 M66.325 2.426 C 66.134 2.657,66.210 2.680,67.000 2.635 C 67.525 2.604,67.919 2.498,67.959 2.375 C 68.065 2.055,66.595 2.101,66.325 2.426 M77.083 2.335 C 76.967 2.522,77.173 2.612,77.934 2.705 C 78.366 2.758,78.439 2.719,78.373 2.468 C 78.286 2.135,77.270 2.031,77.083 2.335 M94.199 2.346 C 94.231 2.444,94.330 2.525,94.417 2.525 C 94.504 2.525,94.602 2.444,94.635 2.346 C 94.668 2.247,94.569 2.167,94.417 2.167 C 94.264 2.167,94.166 2.247,94.199 2.346 M126.969 2.342 C 127.181 2.428,127.308 2.573,127.251 2.665 C 127.096 2.916,127.430 2.869,127.645 2.610 C 127.896 2.308,127.715 2.165,127.097 2.177 C 126.613 2.187,126.605 2.197,126.969 2.342 M152.680 2.401 C 152.493 2.626,152.501 2.667,152.730 2.667 C 152.878 2.667,153.000 2.747,153.000 2.845 C 153.000 2.943,153.123 2.901,153.273 2.751 C 153.476 2.548,153.497 2.431,153.356 2.289 C 153.215 2.148,153.164 2.182,153.155 2.425 C 153.144 2.732,153.137 2.733,153.022 2.442 C 152.912 2.163,152.881 2.159,152.680 2.401 M248.750 2.333 C 248.693 2.425,248.726 2.500,248.823 2.500 C 248.921 2.500,249.000 2.618,249.000 2.762 C 249.000 2.999,249.024 3.000,249.261 2.763 C 249.404 2.620,249.475 2.427,249.417 2.335 C 249.284 2.119,248.883 2.118,248.750 2.333 M250.833 2.417 C 250.663 2.621,250.675 2.667,250.896 2.667 C 251.045 2.667,251.167 2.554,251.167 2.417 C 251.167 2.279,251.138 2.167,251.104 2.167 C 251.069 2.167,250.947 2.279,250.833 2.417 M272.182 2.398 C 272.054 2.553,272.033 2.667,272.133 2.667 C 272.228 2.667,272.443 2.711,272.611 2.766 C 272.795 2.825,272.843 2.809,272.733 2.724 C 272.632 2.647,272.517 2.481,272.477 2.357 C 272.419 2.176,272.360 2.184,272.182 2.398 M339.333 2.417 C 339.163 2.621,339.175 2.667,339.396 2.667 C 339.545 2.667,339.667 2.554,339.667 2.417 C 339.667 2.279,339.638 2.167,339.604 2.167 C 339.569 2.167,339.447 2.279,339.333 2.417 M339.833 2.417 C 339.833 2.591,340.009 2.667,340.417 2.667 C 340.824 2.667,341.000 2.591,341.000 2.417 C 341.000 2.242,340.824 2.167,340.417 2.167 C 340.009 2.167,339.833 2.242,339.833 2.417 M350.094 2.316 C 349.976 2.507,350.393 2.667,351.014 2.667 C 351.335 2.667,351.500 2.582,351.500 2.417 C 351.500 2.137,350.259 2.048,350.094 2.316 M367.333 2.417 C 367.333 2.554,367.408 2.667,367.500 2.667 C 367.592 2.667,367.667 2.554,367.667 2.417 C 367.667 2.279,367.592 2.167,367.500 2.167 C 367.408 2.167,367.333 2.279,367.333 2.417 M399.297 2.258 C 399.150 2.405,399.563 3.164,399.792 3.165 C 399.912 3.166,400.000 2.956,400.000 2.667 C 400.000 2.197,399.594 1.961,399.297 2.258 M240.167 4.583 C 239.997 4.788,240.008 4.833,240.230 4.833 C 240.378 4.833,240.500 4.721,240.500 4.583 C 240.500 4.446,240.472 4.333,240.437 4.333 C 240.402 4.333,240.281 4.446,240.167 4.583 M164.500 5.583 C 164.330 5.788,164.341 5.833,164.563 5.833 C 164.712 5.833,164.833 5.962,164.833 6.119 C 164.833 6.386,164.852 6.386,165.111 6.127 C 165.340 5.898,165.351 5.805,165.174 5.592 C 164.905 5.268,164.763 5.267,164.500 5.583 M239.167 5.583 C 238.997 5.788,239.008 5.833,239.230 5.833 C 239.378 5.833,239.500 5.721,239.500 5.583 C 239.500 5.446,239.472 5.333,239.437 5.333 C 239.402 5.333,239.281 5.446,239.167 5.583 M235.933 6.649 C 235.584 7.034,235.783 7.196,236.402 7.030 C 236.848 6.911,236.851 6.901,236.540 6.619 C 236.237 6.345,236.206 6.346,235.933 6.649 M232.696 7.715 C 232.551 7.889,232.564 8.021,232.748 8.264 C 232.968 8.555,232.990 8.557,232.995 8.292 C 232.998 8.131,233.119 8.000,233.264 8.000 C 233.591 8.000,233.483 7.602,233.138 7.535 C 232.999 7.508,232.800 7.589,232.696 7.715 M167.667 8.750 C 167.489 8.963,167.538 9.000,168.000 9.000 C 168.462 9.000,168.511 8.963,168.333 8.750 C 168.219 8.612,168.069 8.500,168.000 8.500 C 167.931 8.500,167.781 8.612,167.667 8.750 M230.599 8.816 C 230.229 9.225,230.264 10.052,230.667 10.417 C 230.996 10.715,231.000 10.708,231.000 9.859 C 231.000 9.387,231.075 9.000,231.167 9.000 C 231.417 9.000,231.367 8.715,231.099 8.612 C 230.970 8.563,230.745 8.655,230.599 8.816 M170.167 10.917 C 170.167 11.054,170.288 11.167,170.437 11.167 C 170.659 11.167,170.670 11.121,170.500 10.917 C 170.386 10.779,170.264 10.667,170.230 10.667 C 170.195 10.667,170.167 10.779,170.167 10.917 M-0.000 50.208 L 0.000 87.333 200.000 87.333 L 400.000 87.333 400.000 50.208 L 400.000 13.083 338.958 13.125 C 251.586 13.185,250.269 13.191,249.892 13.519 C 249.540 13.825,248.883 13.977,247.333 14.111 C 246.737 14.162,246.063 14.304,245.833 14.427 C 244.774 14.993,244.373 15.155,243.797 15.247 C 243.456 15.302,242.957 15.531,242.689 15.757 C 242.421 15.982,242.093 16.167,241.960 16.167 C 241.631 16.167,240.747 16.619,240.504 16.912 C 240.396 17.043,240.050 17.234,239.735 17.338 C 239.421 17.442,239.087 17.671,238.993 17.847 C 238.899 18.023,238.717 18.167,238.589 18.167 C 238.461 18.167,238.200 18.386,238.009 18.654 C 237.819 18.922,237.342 19.263,236.950 19.413 C 236.552 19.565,236.167 19.846,236.077 20.051 C 235.989 20.252,235.756 20.487,235.559 20.574 C 235.362 20.660,235.079 20.937,234.930 21.189 C 234.781 21.440,234.519 21.691,234.346 21.746 C 234.174 21.801,233.986 22.033,233.928 22.263 C 233.871 22.492,233.597 22.917,233.321 23.206 C 233.044 23.496,232.700 23.980,232.557 24.283 C 232.413 24.586,232.232 24.833,232.155 24.833 C 232.079 24.833,231.873 25.152,231.699 25.542 C 231.524 25.931,231.221 26.393,231.024 26.567 C 230.828 26.742,230.667 27.050,230.667 27.251 C 230.667 27.452,230.443 27.947,230.170 28.350 C 229.896 28.753,229.671 29.218,229.670 29.383 C 229.668 29.547,229.483 29.866,229.258 30.091 C 229.033 30.315,228.700 30.838,228.516 31.252 C 228.333 31.665,228.073 32.047,227.937 32.099 C 227.801 32.151,227.613 32.413,227.520 32.681 C 227.424 32.956,227.165 33.239,226.925 33.330 C 226.691 33.419,226.500 33.603,226.500 33.738 C 226.500 33.874,226.330 34.157,226.121 34.367 C 225.913 34.578,225.565 35.001,225.348 35.308 C 224.861 35.997,223.825 37.033,223.021 37.632 C 222.689 37.880,222.319 38.214,222.199 38.375 C 222.079 38.535,221.834 38.667,221.654 38.667 C 221.470 38.667,221.246 38.842,221.145 39.065 C 221.045 39.284,220.768 39.552,220.530 39.660 C 220.292 39.769,219.996 40.003,219.871 40.181 C 219.746 40.359,219.369 40.620,219.033 40.760 C 218.696 40.901,218.270 41.154,218.086 41.322 C 217.901 41.491,217.588 41.677,217.390 41.737 C 217.191 41.797,216.756 42.063,216.423 42.329 C 216.089 42.594,215.576 42.860,215.283 42.921 C 214.990 42.982,214.487 43.208,214.167 43.424 C 213.846 43.640,213.259 43.888,212.863 43.976 C 212.467 44.065,212.017 44.244,211.863 44.376 C 211.436 44.742,211.028 44.858,209.658 45.004 C 208.899 45.084,208.111 45.288,207.671 45.517 C 206.656 46.046,205.100 46.155,199.583 46.081 C 195.010 46.020,194.223 45.938,193.035 45.395 C 192.734 45.258,191.954 45.088,191.302 45.018 C 190.393 44.921,190.050 44.809,189.831 44.538 C 189.631 44.291,189.201 44.124,188.409 43.986 C 187.626 43.850,187.153 43.668,186.885 43.400 C 186.672 43.187,186.194 42.930,185.823 42.831 C 185.452 42.731,185.020 42.520,184.861 42.361 C 184.703 42.203,184.219 41.938,183.787 41.773 C 183.354 41.608,183.000 41.399,183.000 41.310 C 183.000 41.221,182.646 40.991,182.213 40.800 C 181.781 40.609,181.288 40.275,181.118 40.059 C 180.948 39.843,180.707 39.667,180.583 39.667 C 180.458 39.667,180.196 39.442,180.000 39.167 C 179.804 38.892,179.569 38.667,179.478 38.667 C 178.882 38.667,174.879 34.598,174.595 33.704 C 174.531 33.500,174.375 33.333,174.250 33.333 C 173.971 33.333,173.132 32.194,172.625 31.128 C 172.419 30.694,172.130 30.298,171.984 30.250 C 171.826 30.197,171.628 29.785,171.495 29.230 C 171.372 28.718,171.177 28.263,171.061 28.218 C 170.945 28.174,170.717 27.788,170.555 27.360 C 170.394 26.933,170.086 26.396,169.872 26.167 C 169.658 25.938,169.439 25.537,169.384 25.277 C 169.330 25.017,169.192 24.769,169.077 24.724 C 168.962 24.680,168.659 24.315,168.405 23.913 C 168.151 23.511,167.889 23.215,167.823 23.256 C 167.757 23.297,167.582 23.076,167.435 22.765 C 167.136 22.135,164.640 19.500,164.342 19.500 C 164.146 19.500,164.012 19.400,163.168 18.625 C 162.894 18.373,162.554 18.167,162.413 18.167 C 162.272 18.167,162.114 18.056,162.062 17.922 C 162.010 17.787,161.563 17.491,161.067 17.264 C 160.572 17.037,160.167 16.776,160.167 16.683 C 160.167 16.590,159.848 16.422,159.458 16.309 C 159.069 16.197,158.450 15.901,158.083 15.652 C 157.717 15.403,157.143 15.153,156.809 15.095 C 156.474 15.038,156.008 14.840,155.772 14.654 C 155.465 14.413,154.907 14.269,153.797 14.147 C 152.946 14.053,151.725 13.796,151.083 13.576 L 149.915 13.175 74.958 13.129 L -0.000 13.083 -0.000 50.208 M173.333 14.146 C 173.333 14.350,173.440 14.500,173.583 14.500 C 173.721 14.500,173.833 14.434,173.833 14.354 C 173.833 14.273,173.721 14.114,173.583 14.000 C 173.374 13.827,173.333 13.851,173.333 14.146 M225.262 16.262 C 224.889 16.634,224.929 17.551,225.333 17.917 C 225.621 18.177,225.667 18.182,225.667 17.955 C 225.667 17.810,225.798 17.657,225.958 17.615 C 226.236 17.542,226.236 17.538,225.958 17.519 C 225.620 17.497,225.536 16.571,225.863 16.462 C 226.074 16.392,225.909 16.000,225.669 16.000 C 225.589 16.000,225.406 16.118,225.262 16.262 M179.326 21.592 C 179.149 21.805,179.160 21.898,179.389 22.127 C 179.648 22.386,179.667 22.383,179.678 22.077 C 179.690 21.756,179.693 21.756,179.827 22.083 C 179.953 22.389,179.974 22.393,180.083 22.125 C 180.350 21.471,179.767 21.060,179.326 21.592 M220.993 21.592 C 220.641 22.016,221.220 22.518,221.611 22.127 C 221.883 21.855,221.701 21.333,221.333 21.333 C 221.264 21.333,221.111 21.450,220.993 21.592 M180.444 23.611 C 180.255 23.800,180.322 24.000,180.573 24.000 C 180.730 24.000,180.831 24.216,180.865 24.625 C 180.930 25.410,181.232 25.375,181.302 24.575 C 181.372 23.778,180.857 23.199,180.444 23.611 M184.000 29.083 C 184.000 29.221,184.122 29.333,184.270 29.333 C 184.492 29.333,184.503 29.288,184.333 29.083 C 184.219 28.946,184.098 28.833,184.063 28.833 C 184.028 28.833,184.000 28.946,184.000 29.083 M215.663 29.087 C 215.370 29.440,215.482 29.493,216.295 29.384 C 216.734 29.325,217.000 29.204,217.000 29.061 C 217.000 28.743,215.932 28.764,215.663 29.087 M212.520 31.046 C 212.243 31.324,212.293 31.500,212.649 31.500 C 213.024 31.500,213.241 31.064,212.926 30.943 C 212.806 30.897,212.623 30.944,212.520 31.046 M188.041 32.208 C 188.079 32.323,188.287 32.443,188.505 32.474 C 188.851 32.525,188.873 32.498,188.680 32.266 C 188.419 31.952,187.942 31.908,188.041 32.208 M192.167 32.250 C 191.997 32.455,192.008 32.500,192.230 32.500 C 192.426 32.500,192.500 32.655,192.500 33.067 C 192.500 33.620,192.518 33.635,193.264 33.694 C 194.159 33.765,194.322 33.624,193.818 33.213 C 193.618 33.050,193.265 32.710,193.033 32.458 C 192.548 31.931,192.451 31.907,192.167 32.250 M207.200 33.200 C 207.014 33.386,206.918 33.833,207.064 33.833 C 207.419 33.833,207.960 33.360,207.794 33.194 C 207.550 32.950,207.449 32.951,207.200 33.200 M196.444 34.278 C 196.203 34.519,196.358 34.667,196.854 34.667 C 197.297 34.667,197.344 34.630,197.167 34.417 C 196.948 34.153,196.630 34.092,196.444 34.278 M199.606 34.417 C 199.535 34.604,199.633 34.667,200.000 34.667 C 200.367 34.667,200.465 34.604,200.394 34.417 C 200.341 34.279,200.164 34.167,200.000 34.167 C 199.836 34.167,199.659 34.279,199.606 34.417 M201.778 34.278 C 201.536 34.519,201.691 34.667,202.187 34.667 C 202.631 34.667,202.677 34.630,202.500 34.417 C 202.281 34.153,201.964 34.092,201.778 34.278 M203.833 34.417 C 203.652 34.635,203.767 34.667,204.724 34.667 C 205.632 34.667,205.806 34.623,205.727 34.417 C 205.660 34.243,205.389 34.167,204.836 34.167 C 204.332 34.167,203.965 34.258,203.833 34.417 " stroke="none" fill="#f0f8ff" fill-rule="evenodd"></path><path id="path1" d="M0.542 12.788 C 0.885 12.824,1.448 12.824,1.792 12.788 C 2.135 12.752,1.854 12.723,1.167 12.723 C 0.479 12.723,0.198 12.752,0.542 12.788 M398.208 12.788 C 398.552 12.824,399.115 12.824,399.458 12.788 C 399.802 12.752,399.521 12.723,398.833 12.723 C 398.146 12.723,397.865 12.752,398.208 12.788 M77.000 12.999 C 147.258 13.079,151.116 13.098,151.707 13.377 C 152.050 13.538,153.062 13.793,153.957 13.943 C 154.965 14.113,155.940 14.397,156.521 14.692 C 157.036 14.953,157.547 15.167,157.657 15.167 C 157.766 15.167,158.094 15.348,158.386 15.570 C 158.678 15.792,159.142 16.028,159.417 16.094 C 159.692 16.160,160.213 16.428,160.575 16.690 C 160.936 16.952,161.304 17.167,161.392 17.167 C 161.480 17.167,162.146 17.621,162.873 18.176 C 163.599 18.732,164.367 19.265,164.579 19.362 C 164.790 19.458,165.059 19.716,165.177 19.935 C 165.294 20.154,165.449 20.333,165.522 20.333 C 165.712 20.333,167.001 21.663,167.316 22.184 C 167.463 22.427,168.015 23.155,168.542 23.804 C 169.069 24.452,169.500 25.051,169.500 25.135 C 169.500 25.219,169.720 25.564,169.989 25.902 C 170.257 26.241,170.525 26.733,170.583 26.997 C 170.641 27.261,170.800 27.570,170.937 27.684 C 171.228 27.925,171.667 28.914,171.667 29.328 C 171.667 29.486,171.825 29.758,172.018 29.933 C 172.212 30.107,172.517 30.562,172.696 30.942 C 172.875 31.323,173.167 31.766,173.344 31.926 C 173.522 32.087,173.667 32.300,173.667 32.401 C 173.667 32.501,173.896 32.808,174.176 33.083 C 174.456 33.358,175.175 34.177,175.774 34.902 C 177.056 36.454,176.916 36.314,178.500 37.636 C 179.188 38.210,179.975 38.902,180.250 39.173 C 180.525 39.445,180.806 39.667,180.874 39.667 C 180.942 39.667,181.341 39.929,181.761 40.250 C 182.182 40.571,182.614 40.835,182.721 40.836 C 182.829 40.838,183.080 41.012,183.281 41.223 C 183.481 41.434,183.937 41.695,184.295 41.802 C 184.653 41.909,185.082 42.148,185.249 42.332 C 185.415 42.516,185.657 42.667,185.785 42.667 C 185.913 42.667,186.500 42.922,187.089 43.235 C 187.678 43.547,188.480 43.855,188.871 43.919 C 189.263 43.983,189.735 44.175,189.921 44.345 C 190.128 44.535,190.741 44.729,191.505 44.846 C 192.190 44.950,193.162 45.174,193.667 45.342 C 196.371 46.245,205.521 46.242,207.445 45.337 C 207.840 45.152,208.370 44.998,208.623 44.996 C 209.318 44.990,210.499 44.694,211.290 44.327 C 211.678 44.147,212.079 44.000,212.181 44.000 C 212.282 44.000,212.902 43.747,213.558 43.438 C 214.213 43.129,214.938 42.819,215.167 42.750 C 215.396 42.681,215.879 42.409,216.241 42.146 C 216.603 41.882,216.986 41.667,217.093 41.667 C 217.200 41.667,217.571 41.442,217.917 41.167 C 218.263 40.892,218.629 40.666,218.731 40.665 C 218.915 40.663,219.954 39.920,220.917 39.102 C 221.192 38.869,221.710 38.431,222.068 38.130 C 223.285 37.109,225.333 35.110,225.333 34.943 C 225.333 34.774,225.836 34.192,226.792 33.257 C 227.090 32.965,227.334 32.657,227.334 32.571 C 227.334 32.486,227.557 32.156,227.829 31.838 C 228.101 31.519,228.417 31.032,228.531 30.754 C 228.645 30.477,228.865 30.137,229.018 30.000 C 229.172 29.863,229.428 29.394,229.588 28.958 C 229.748 28.523,229.937 28.167,230.009 28.167 C 230.080 28.167,230.271 27.810,230.433 27.375 C 230.595 26.940,230.952 26.246,231.227 25.833 C 232.546 23.853,232.768 23.539,233.282 22.928 C 233.585 22.568,233.833 22.205,233.833 22.121 C 233.833 21.939,236.476 19.333,236.660 19.333 C 236.729 19.333,237.373 18.846,238.090 18.250 C 238.806 17.654,239.477 17.167,239.580 17.167 C 239.683 17.167,240.064 16.952,240.425 16.690 C 240.787 16.428,241.288 16.165,241.537 16.105 C 241.787 16.045,242.124 15.853,242.287 15.679 C 242.450 15.505,243.071 15.240,243.667 15.089 C 244.262 14.939,244.943 14.677,245.179 14.508 C 245.429 14.328,246.278 14.093,247.207 13.944 C 248.087 13.804,249.056 13.553,249.361 13.386 C 249.895 13.095,252.772 13.080,323.500 12.999 L 397.083 12.914 323.417 12.915 L 249.750 12.917 248.667 13.299 C 248.071 13.510,247.246 13.722,246.833 13.771 C 245.961 13.876,245.253 14.113,244.667 14.499 C 244.438 14.650,243.840 14.864,243.338 14.976 C 242.837 15.087,242.274 15.313,242.088 15.479 C 241.902 15.644,241.487 15.880,241.167 16.003 C 240.846 16.127,240.371 16.401,240.112 16.614 C 239.853 16.826,239.541 17.000,239.419 17.000 C 239.297 17.000,238.624 17.487,237.923 18.083 C 237.222 18.679,236.583 19.167,236.504 19.167 C 236.334 19.167,233.828 21.604,233.583 22.007 C 233.492 22.158,232.948 22.906,232.375 23.670 C 231.802 24.434,231.333 25.129,231.333 25.214 C 231.333 25.299,231.149 25.588,230.923 25.856 C 230.697 26.124,230.446 26.585,230.364 26.880 C 230.282 27.175,230.017 27.708,229.774 28.065 C 229.532 28.421,229.333 28.837,229.333 28.988 C 229.333 29.139,229.111 29.522,228.840 29.840 C 228.569 30.157,228.344 30.470,228.340 30.536 C 228.327 30.770,227.022 32.679,226.557 33.146 C 226.296 33.407,225.896 33.870,225.667 34.175 C 225.129 34.889,222.763 37.270,221.948 37.917 C 221.601 38.192,221.129 38.601,220.898 38.827 C 220.505 39.213,220.188 39.431,218.840 40.250 C 218.538 40.433,218.082 40.753,217.827 40.961 C 217.572 41.168,217.080 41.456,216.734 41.601 C 216.388 41.745,215.868 42.044,215.578 42.265 C 215.289 42.486,214.909 42.667,214.734 42.667 C 214.560 42.668,214.154 42.829,213.833 43.026 C 213.277 43.367,211.077 44.185,209.833 44.513 C 205.285 45.714,203.916 45.881,199.500 45.770 C 196.884 45.705,195.692 45.609,195.083 45.414 C 194.625 45.268,193.486 45.006,192.551 44.832 C 191.617 44.658,190.476 44.324,190.015 44.091 C 189.555 43.858,188.965 43.667,188.705 43.667 C 188.445 43.667,187.877 43.442,187.444 43.167 C 187.010 42.892,186.556 42.667,186.434 42.667 C 186.313 42.667,185.940 42.481,185.605 42.254 C 185.271 42.027,184.623 41.680,184.165 41.483 C 183.708 41.287,183.333 41.067,183.333 40.996 C 183.333 40.925,183.019 40.703,182.634 40.503 C 181.227 39.769,177.695 36.732,176.040 34.833 C 175.360 34.054,174.597 33.192,174.344 32.917 C 174.090 32.642,173.595 31.929,173.242 31.333 C 172.890 30.738,172.438 30.063,172.238 29.833 C 172.038 29.604,171.826 29.154,171.767 28.833 C 171.709 28.512,171.437 27.920,171.164 27.517 C 170.890 27.113,170.667 26.695,170.667 26.588 C 170.667 26.481,170.444 26.098,170.171 25.738 C 169.899 25.378,169.674 25.015,169.671 24.932 C 169.666 24.749,168.307 22.941,168.111 22.857 C 168.035 22.823,167.830 22.561,167.655 22.273 C 167.285 21.664,164.838 19.167,164.611 19.167 C 164.526 19.167,164.171 18.923,163.821 18.625 C 162.846 17.795,162.304 17.409,161.667 17.088 C 161.346 16.926,160.933 16.662,160.750 16.501 C 160.567 16.340,160.117 16.114,159.750 16.000 C 159.383 15.886,158.933 15.659,158.750 15.496 C 158.567 15.333,158.042 15.075,157.583 14.921 C 157.125 14.768,156.630 14.534,156.483 14.401 C 156.336 14.268,155.773 14.079,155.233 13.980 C 154.692 13.881,153.837 13.688,153.333 13.550 C 150.629 12.810,154.440 12.844,76.583 12.880 L 2.917 12.915 77.000 12.999 " stroke="none" fill="#ffffff00" fill-rule="evenodd"></path>
<path id="path2" d="M1.072 1.584 C 0.706 2.063,0.664 2.212,0.834 2.417 C 0.977 2.590,0.983 2.667,0.854 2.667 C 0.751 2.667,0.667 2.779,0.667 2.917 C 0.667 3.056,0.519 3.167,0.333 3.167 C 0.008 3.167,0.000 3.278,0.000 7.891 L 0.000 12.616 1.776 12.725 C 2.753 12.784,36.559 12.836,76.901 12.839 C 154.376 12.846,150.632 12.811,153.333 13.550 C 153.837 13.688,154.692 13.881,155.233 13.980 C 155.773 14.079,156.336 14.268,156.483 14.401 C 156.630 14.534,157.125 14.768,157.583 14.921 C 158.042 15.075,158.567 15.333,158.750 15.496 C 158.933 15.659,159.383 15.886,159.750 16.000 C 160.117 16.114,160.567 16.340,160.750 16.501 C 160.933 16.662,161.346 16.926,161.667 17.088 C 162.304 17.409,162.846 17.795,163.821 18.625 C 164.171 18.923,164.526 19.167,164.611 19.167 C 164.838 19.167,167.285 21.664,167.655 22.273 C 167.830 22.561,168.035 22.823,168.111 22.857 C 168.307 22.941,169.666 24.749,169.671 24.932 C 169.674 25.015,169.899 25.378,170.171 25.738 C 170.444 26.098,170.667 26.481,170.667 26.588 C 170.667 26.695,170.890 27.113,171.164 27.517 C 171.437 27.920,171.709 28.512,171.767 28.833 C 171.826 29.154,172.038 29.604,172.238 29.833 C 172.438 30.063,172.890 30.738,173.242 31.333 C 173.595 31.929,174.090 32.642,174.344 32.917 C 174.597 33.192,175.360 34.054,176.040 34.833 C 177.695 36.732,181.227 39.769,182.634 40.503 C 183.019 40.703,183.333 40.925,183.333 40.996 C 183.333 41.067,183.708 41.287,184.165 41.483 C 184.623 41.680,185.271 42.027,185.605 42.254 C 185.940 42.481,186.313 42.667,186.434 42.667 C 186.556 42.667,187.010 42.892,187.444 43.167 C 187.877 43.442,188.445 43.667,188.705 43.667 C 188.965 43.667,189.555 43.858,190.015 44.091 C 190.476 44.324,191.617 44.658,192.551 44.832 C 193.486 45.006,194.625 45.268,195.083 45.414 C 195.692 45.609,196.884 45.705,199.500 45.770 C 203.916 45.881,205.285 45.714,209.833 44.513 C 211.077 44.185,213.277 43.367,213.833 43.026 C 214.154 42.829,214.560 42.668,214.734 42.667 C 214.909 42.667,215.289 42.486,215.578 42.265 C 215.868 42.044,216.388 41.745,216.734 41.601 C 217.080 41.456,217.572 41.168,217.827 40.961 C 218.082 40.753,218.538 40.433,218.840 40.250 C 220.188 39.431,220.505 39.213,220.898 38.827 C 221.129 38.601,221.601 38.192,221.948 37.917 C 222.763 37.270,225.129 34.889,225.667 34.175 C 225.896 33.870,226.296 33.407,226.557 33.146 C 227.022 32.679,228.327 30.770,228.340 30.536 C 228.344 30.470,228.569 30.157,228.840 29.840 C 229.111 29.522,229.333 29.139,229.333 28.988 C 229.333 28.837,229.532 28.421,229.774 28.065 C 230.017 27.708,230.282 27.175,230.364 26.880 C 230.446 26.585,230.697 26.124,230.923 25.856 C 231.149 25.588,231.333 25.299,231.333 25.214 C 231.333 25.129,231.802 24.434,232.375 23.670 C 232.948 22.906,233.492 22.158,233.583 22.007 C 233.828 21.604,236.334 19.167,236.504 19.167 C 236.583 19.167,237.222 18.679,237.923 18.083 C 238.624 17.488,239.297 17.000,239.419 17.000 C 239.541 17.000,239.853 16.826,240.112 16.614 C 240.371 16.401,240.846 16.127,241.167 16.003 C 241.487 15.880,241.902 15.644,242.088 15.479 C 242.274 15.313,242.837 15.087,243.338 14.976 C 243.840 14.864,244.438 14.650,244.667 14.499 C 245.253 14.113,245.961 13.876,246.833 13.771 C 247.246 13.722,248.071 13.510,248.667 13.299 L 249.750 12.917 324.833 12.830 C 366.129 12.783,399.935 12.727,399.958 12.705 C 400.155 12.523,399.969 3.167,399.769 3.167 C 399.540 3.167,399.275 2.602,399.322 2.211 C 399.336 2.093,399.059 1.960,398.667 1.897 C 398.256 1.832,397.922 1.666,397.821 1.478 C 397.600 1.063,397.057 1.082,396.826 1.513 C 396.656 1.831,396.514 1.856,395.105 1.815 C 394.261 1.790,393.486 1.822,393.383 1.886 C 393.280 1.950,393.157 1.908,393.111 1.793 C 393.048 1.637,393.023 1.642,393.013 1.812 C 393.003 1.986,392.946 1.996,392.772 1.852 C 392.599 1.708,392.494 1.723,392.335 1.915 C 392.097 2.202,391.355 2.239,390.500 2.006 C 389.441 1.718,387.038 1.670,386.820 1.933 C 386.555 2.252,385.677 2.228,385.305 1.891 C 385.106 1.711,385.000 1.685,385.000 1.817 C 385.000 1.929,384.931 1.977,384.848 1.925 C 384.764 1.874,384.657 1.925,384.611 2.041 C 384.562 2.162,384.521 2.121,384.513 1.944 C 384.501 1.660,384.335 1.643,382.155 1.694 C 380.060 1.744,379.793 1.719,379.647 1.458 C 379.434 1.079,379.256 1.091,378.672 1.522 C 378.384 1.736,378.077 1.835,377.908 1.770 C 377.752 1.710,377.521 1.746,377.396 1.851 C 377.220 1.996,377.166 1.987,377.164 1.812 C 377.162 1.620,377.138 1.620,377.018 1.809 C 376.918 1.968,376.841 1.980,376.761 1.851 C 376.695 1.745,376.467 1.710,376.229 1.770 C 375.915 1.849,375.698 1.766,375.353 1.436 L 374.895 0.996 374.502 1.415 C 374.149 1.790,373.977 1.834,372.846 1.836 C 371.291 1.838,370.814 1.954,370.872 2.312 C 370.906 2.515,370.760 2.596,370.292 2.635 C 369.694 2.684,369.667 2.664,369.667 2.177 C 369.667 1.766,369.597 1.667,369.308 1.667 C 368.959 1.667,368.957 1.657,369.250 1.333 C 369.809 0.715,368.703 0.899,368.050 1.533 L 367.500 2.065 366.950 1.533 C 366.189 0.794,364.470 0.739,363.821 1.431 C 363.444 1.833,363.338 1.857,362.250 1.786 C 361.608 1.744,360.952 1.777,360.792 1.860 C 360.631 1.944,360.500 1.953,360.500 1.881 C 360.500 1.809,360.275 1.750,360.000 1.750 C 359.725 1.750,359.500 1.821,359.500 1.908 C 359.500 1.995,359.410 1.977,359.300 1.867 C 359.190 1.757,358.916 1.667,358.691 1.667 C 358.292 1.667,358.289 1.658,358.583 1.333 C 358.882 1.003,358.874 1.000,357.833 1.000 C 356.792 1.000,356.785 1.003,357.083 1.333 C 357.381 1.662,357.374 1.667,356.609 1.667 C 355.986 1.667,355.831 1.724,355.820 1.958 C 355.812 2.144,355.776 2.172,355.721 2.035 C 355.654 1.869,355.580 1.864,355.400 2.013 C 355.215 2.168,355.167 2.147,355.167 1.911 C 355.167 1.635,355.146 1.633,354.862 1.891 C 354.503 2.215,353.655 2.255,353.360 1.960 C 353.154 1.754,353.100 1.740,352.349 1.692 C 351.959 1.667,351.956 1.658,352.250 1.333 C 352.546 1.007,352.541 1.000,352.016 1.000 C 351.626 1.000,351.347 1.146,350.985 1.542 L 350.488 2.083 350.994 2.136 C 351.704 2.209,351.673 2.667,350.958 2.664 C 350.265 2.661,349.864 2.437,350.189 2.236 C 350.490 2.050,349.844 1.872,348.790 1.850 C 348.217 1.838,347.917 1.741,347.711 1.500 C 347.337 1.063,347.193 1.079,346.633 1.615 L 346.165 2.064 345.616 1.532 C 344.926 0.863,344.208 0.823,343.568 1.417 C 343.024 1.920,342.754 1.939,342.378 1.500 C 341.907 0.950,340.845 1.588,340.969 2.347 C 341.012 2.612,340.919 2.667,340.427 2.667 C 339.733 2.667,339.581 2.221,340.247 2.136 L 340.661 2.083 340.216 1.517 L 339.771 0.951 339.230 1.595 C 338.714 2.209,338.675 2.226,338.376 1.955 C 338.134 1.736,338.017 1.716,337.864 1.869 C 337.712 2.021,337.667 2.021,337.667 1.867 C 337.667 1.737,337.365 1.667,336.808 1.667 C 335.959 1.667,335.952 1.663,336.250 1.333 C 336.738 0.794,335.657 0.871,335.068 1.417 C 334.429 2.008,333.221 2.007,332.665 1.415 L 332.272 0.996 331.844 1.404 C 331.495 1.737,331.288 1.799,330.716 1.743 C 330.318 1.704,329.967 1.753,329.903 1.855 C 329.835 1.966,329.752 1.974,329.688 1.876 C 329.600 1.742,327.717 1.844,327.083 2.017 C 326.649 2.136,325.499 1.771,325.156 1.405 C 324.660 0.878,323.906 0.873,323.342 1.394 C 322.840 1.858,321.755 2.153,321.167 1.985 C 320.938 1.920,320.407 1.859,319.987 1.850 C 319.402 1.837,319.134 1.736,318.832 1.415 L 318.439 0.996 318.011 1.392 C 317.469 1.893,316.422 2.152,315.703 1.964 C 315.370 1.877,314.912 1.888,314.536 1.993 C 313.472 2.288,313.102 2.212,312.545 1.583 C 311.892 0.846,311.097 0.781,310.500 1.417 C 309.943 2.010,308.724 2.010,308.167 1.417 C 307.888 1.120,307.604 1.001,307.179 1.005 C 306.694 1.009,306.637 1.042,306.875 1.180 C 307.226 1.385,307.258 1.667,306.931 1.667 C 306.801 1.667,306.665 1.755,306.629 1.863 C 306.590 1.980,306.475 2.004,306.343 1.923 C 305.962 1.687,304.985 1.706,304.737 1.953 C 304.532 2.158,304.500 2.155,304.500 1.929 C 304.500 1.785,304.376 1.667,304.224 1.667 C 303.976 1.667,303.979 1.633,304.250 1.333 C 304.550 1.002,304.541 1.000,302.911 1.000 C 301.453 1.000,301.306 1.026,301.593 1.236 C 302.105 1.611,301.898 1.649,299.037 1.708 C 297.381 1.742,296.266 1.834,296.155 1.945 C 296.027 2.073,295.808 2.077,295.421 1.958 C 295.038 1.840,294.709 1.844,294.346 1.971 C 293.868 2.137,293.786 2.111,293.384 1.660 C 292.835 1.044,292.654 1.043,292.202 1.654 C 291.865 2.110,291.801 2.131,291.230 1.973 C 290.894 1.880,290.236 1.848,289.768 1.902 C 289.300 1.956,288.363 2.046,287.686 2.103 L 286.455 2.205 285.902 1.603 C 285.488 1.150,285.217 1.000,284.816 1.000 C 284.292 1.000,284.288 1.007,284.583 1.333 C 284.875 1.656,284.874 1.667,284.557 1.667 C 284.377 1.667,284.013 1.892,283.750 2.167 C 283.251 2.688,282.420 2.914,282.833 2.417 C 283.007 2.207,282.981 2.167,282.671 2.167 C 282.025 2.167,280.534 1.661,280.437 1.409 C 280.280 1.000,279.750 1.139,279.337 1.697 L 278.945 2.228 278.502 1.697 C 277.982 1.074,277.826 1.048,277.405 1.512 C 277.206 1.732,276.955 1.832,276.713 1.785 C 276.468 1.739,276.333 1.794,276.333 1.940 C 276.333 2.065,276.226 2.167,276.095 2.167 C 275.964 2.167,275.824 2.335,275.784 2.542 C 275.740 2.774,275.703 2.679,275.689 2.292 C 275.673 1.830,275.594 1.667,275.391 1.667 C 275.143 1.667,275.145 1.633,275.417 1.333 C 275.712 1.007,275.708 1.000,275.185 1.000 C 274.829 1.000,274.522 1.139,274.265 1.417 C 273.798 1.920,273.426 1.945,273.045 1.500 C 272.657 1.047,272.467 1.079,271.924 1.688 C 271.482 2.184,271.420 2.203,270.605 2.086 C 270.135 2.018,269.312 1.912,268.776 1.849 C 268.118 1.772,267.750 1.642,267.642 1.451 C 267.436 1.082,267.230 1.092,266.712 1.500 C 266.349 1.786,266.025 1.835,264.436 1.845 C 263.417 1.851,262.433 1.918,262.250 1.992 C 262.027 2.082,261.820 2.042,261.625 1.871 C 261.411 1.683,261.333 1.672,261.333 1.828 C 261.333 1.998,261.283 1.999,261.083 1.833 C 260.918 1.696,260.763 1.680,260.625 1.787 C 260.254 2.074,259.761 2.204,259.962 1.962 C 260.096 1.801,260.045 1.750,259.750 1.750 C 259.455 1.750,259.404 1.801,259.538 1.962 C 259.739 2.204,259.246 2.074,258.875 1.787 C 258.737 1.680,258.582 1.696,258.417 1.833 C 258.217 1.999,258.167 1.998,258.167 1.828 C 258.167 1.679,258.073 1.700,257.857 1.895 C 257.595 2.133,257.518 2.140,257.355 1.943 C 257.134 1.677,254.478 1.723,253.735 2.006 C 252.892 2.326,252.205 2.206,251.807 1.667 C 251.344 1.041,251.167 1.041,250.610 1.667 C 250.335 1.975,250.001 2.167,249.739 2.167 C 249.496 2.167,249.358 2.239,249.417 2.335 C 249.475 2.427,249.404 2.620,249.261 2.763 C 249.024 3.000,249.000 2.999,249.000 2.762 C 249.000 2.618,248.916 2.500,248.813 2.500 C 248.677 2.500,248.678 2.437,248.817 2.269 C 249.083 1.950,248.119 1.775,247.333 2.000 C 247.014 2.092,246.520 2.167,246.235 2.167 C 245.930 2.167,245.595 2.303,245.417 2.500 C 245.029 2.929,244.396 2.929,244.167 2.500 C 243.861 1.930,242.618 2.033,242.167 2.667 C 241.877 3.073,241.691 3.167,241.172 3.167 C 240.606 3.167,240.409 3.291,239.460 4.250 C 238.541 5.178,238.302 5.333,237.797 5.333 C 236.985 5.333,236.188 6.283,236.630 6.725 C 236.885 6.981,236.876 7.002,236.494 7.025 C 235.713 7.072,235.579 7.091,234.474 7.323 C 233.678 7.489,233.389 7.618,233.450 7.777 C 233.500 7.906,233.423 8.000,233.268 8.000 C 233.121 8.000,232.998 8.131,232.995 8.292 C 232.990 8.569,232.978 8.568,232.767 8.290 C 232.569 8.030,232.520 8.025,232.335 8.248 C 232.220 8.387,231.855 8.501,231.521 8.503 C 231.049 8.505,230.971 8.544,231.167 8.682 C 231.355 8.815,231.365 8.880,231.208 8.943 C 231.080 8.995,231.000 9.353,231.000 9.873 C 231.000 10.708,230.996 10.715,230.667 10.417 C 230.339 10.120,230.333 10.126,230.333 10.703 C 230.333 12.316,229.915 12.848,229.230 12.109 L 228.824 11.671 227.495 12.995 C 226.344 14.142,226.167 14.395,226.167 14.897 C 226.167 15.216,226.059 15.584,225.927 15.715 C 225.742 15.901,225.733 16.002,225.886 16.165 C 226.038 16.327,226.036 16.392,225.875 16.451 C 225.548 16.571,225.616 17.462,225.958 17.552 C 226.236 17.624,226.236 17.629,225.958 17.647 C 225.798 17.658,225.667 17.791,225.667 17.942 C 225.667 18.196,225.643 18.197,225.371 17.951 C 224.884 17.510,224.000 18.298,224.000 19.174 C 224.000 19.702,223.907 19.892,223.500 20.193 C 223.103 20.487,223.000 20.688,223.000 21.172 C 223.000 21.935,222.483 22.499,222.086 22.169 C 221.884 22.002,221.783 22.001,221.583 22.167 C 221.384 22.332,221.283 22.332,221.083 22.167 C 220.866 21.986,220.833 22.086,220.833 22.934 L 220.833 23.908 219.757 24.996 C 219.087 25.674,218.600 26.332,218.466 26.744 C 218.285 27.297,218.158 27.423,217.682 27.520 C 217.343 27.589,216.894 27.876,216.566 28.234 L 216.017 28.833 216.508 28.833 C 217.220 28.833,217.174 29.324,216.458 29.362 C 216.160 29.378,215.790 29.399,215.635 29.409 C 215.481 29.419,215.043 29.706,214.663 30.047 C 214.284 30.388,213.810 30.668,213.611 30.669 C 213.231 30.672,212.587 30.993,212.953 30.997 C 213.065 30.999,213.113 31.112,213.060 31.250 C 213.008 31.387,212.822 31.500,212.649 31.500 C 212.287 31.500,212.244 31.323,212.533 31.033 C 212.689 30.878,212.622 30.833,212.231 30.833 C 211.866 30.833,211.587 30.993,211.212 31.417 C 210.928 31.737,210.585 32.000,210.450 32.000 C 210.316 32.000,210.166 32.150,210.118 32.333 C 209.997 32.796,209.169 32.796,209.048 32.333 C 208.920 31.841,208.407 31.928,207.991 32.513 C 207.728 32.882,207.676 33.076,207.807 33.207 C 207.937 33.337,207.864 33.452,207.548 33.616 C 207.250 33.770,207.074 33.787,207.001 33.668 C 206.933 33.558,206.778 33.619,206.587 33.829 C 206.419 34.015,206.135 34.167,205.956 34.167 C 205.736 34.167,205.662 34.247,205.727 34.417 C 205.806 34.623,205.632 34.667,204.724 34.667 C 203.767 34.667,203.652 34.635,203.833 34.417 C 204.013 34.200,203.925 34.167,203.167 34.167 C 202.409 34.167,202.320 34.200,202.500 34.417 C 202.677 34.630,202.629 34.667,202.169 34.667 C 201.759 34.667,201.654 34.607,201.727 34.417 C 201.804 34.217,201.670 34.167,201.060 34.167 C 200.451 34.167,200.317 34.217,200.394 34.417 C 200.465 34.604,200.367 34.667,200.000 34.667 C 199.633 34.667,199.535 34.604,199.606 34.417 C 199.687 34.207,199.481 34.167,198.331 34.167 C 197.130 34.167,196.985 34.198,197.167 34.417 C 197.344 34.630,197.297 34.667,196.854 34.667 C 196.318 34.667,196.171 34.452,196.546 34.217 C 196.703 34.118,196.626 33.942,196.246 33.533 L 195.734 32.983 195.295 33.390 C 194.973 33.688,194.708 33.782,194.303 33.742 C 193.999 33.712,193.469 33.683,193.125 33.677 C 192.524 33.667,192.500 33.644,192.500 33.083 C 192.500 32.656,192.428 32.500,192.230 32.500 C 192.008 32.500,191.997 32.455,192.167 32.250 C 192.504 31.843,191.454 31.924,191.083 32.333 C 190.698 32.759,190.135 32.759,189.750 32.333 C 189.367 31.910,188.331 31.845,188.680 32.266 C 188.873 32.499,188.849 32.525,188.492 32.474 C 188.252 32.441,188.082 32.305,188.081 32.148 C 188.079 32.000,187.982 31.762,187.864 31.621 C 187.683 31.402,187.739 31.295,188.238 30.914 C 188.727 30.541,188.798 30.412,188.657 30.149 C 188.412 29.691,187.231 29.715,186.728 30.188 C 186.259 30.628,185.911 30.512,185.783 29.874 C 185.637 29.144,183.183 26.690,182.379 26.469 C 181.677 26.276,181.506 26.094,181.503 25.534 C 181.501 25.263,181.415 25.166,181.208 25.201 C 180.981 25.239,180.905 25.113,180.865 24.625 C 180.831 24.216,180.730 24.000,180.573 24.000 C 180.251 24.000,180.268 23.720,180.602 23.533 C 180.848 23.395,180.848 23.375,180.602 23.280 C 180.414 23.208,180.332 22.962,180.328 22.464 C 180.324 21.850,180.297 21.796,180.134 22.076 C 179.947 22.399,179.944 22.399,179.818 22.076 C 179.697 21.768,179.689 21.768,179.678 22.062 C 179.669 22.320,179.624 22.338,179.417 22.167 C 179.223 22.006,179.113 22.004,178.928 22.157 C 178.653 22.386,178.333 21.947,178.333 21.341 C 178.333 21.149,178.033 20.667,177.667 20.269 C 177.157 19.717,177.000 19.410,177.000 18.971 C 177.000 18.525,176.888 18.313,176.500 18.026 C 176.104 17.734,176.000 17.531,176.000 17.051 C 176.000 16.379,174.261 14.500,173.638 14.500 C 173.439 14.500,173.333 14.378,173.333 14.146 C 173.333 13.851,173.374 13.827,173.583 14.000 C 173.796 14.176,173.833 14.134,173.833 13.720 C 173.833 13.074,173.560 12.833,172.826 12.833 C 172.076 12.833,171.667 12.423,171.667 11.672 C 171.667 11.216,171.493 10.952,170.667 10.154 C 169.864 9.378,169.667 9.084,169.667 8.666 C 169.667 7.500,169.088 7.174,168.496 8.006 C 168.206 8.412,168.175 8.560,168.338 8.756 C 168.509 8.962,168.456 9.000,168.000 9.000 C 167.538 9.000,167.489 8.963,167.667 8.750 C 167.843 8.537,167.800 8.500,167.374 8.500 C 167.099 8.500,166.784 8.392,166.675 8.260 C 166.565 8.128,166.369 8.061,166.238 8.111 C 166.090 8.168,166.000 8.097,166.000 7.925 C 166.000 7.772,166.075 7.693,166.167 7.750 C 166.265 7.811,166.333 7.623,166.333 7.291 C 166.333 6.590,165.482 5.835,165.074 6.175 C 164.881 6.334,164.833 6.320,164.833 6.104 C 164.833 5.955,164.712 5.833,164.563 5.833 C 164.341 5.833,164.330 5.788,164.500 5.583 C 164.680 5.366,164.579 5.333,163.718 5.333 C 162.837 5.333,162.677 5.279,162.250 4.833 C 161.890 4.457,161.621 4.333,161.164 4.333 C 160.633 4.333,160.430 4.198,159.537 3.250 C 158.345 1.984,157.701 1.827,156.803 2.583 C 155.881 3.359,154.648 2.933,153.480 1.434 L 153.104 0.951 152.594 1.557 C 152.101 2.142,152.062 2.156,151.476 1.976 C 151.045 1.843,150.724 1.839,150.368 1.963 C 149.920 2.119,149.819 2.087,149.403 1.652 C 148.853 1.079,148.671 1.054,148.289 1.500 C 147.912 1.939,147.643 1.920,147.099 1.417 C 146.510 0.871,145.429 0.794,145.917 1.333 C 146.216 1.664,146.208 1.667,144.859 1.667 C 143.762 1.667,143.500 1.715,143.500 1.917 C 143.500 2.054,143.387 2.167,143.250 2.167 C 143.112 2.167,143.000 2.053,143.000 1.913 C 143.000 1.729,142.891 1.688,142.595 1.762 C 142.304 1.835,142.105 1.765,141.891 1.515 C 141.476 1.030,141.127 1.080,140.677 1.688 L 140.292 2.209 139.738 1.605 C 139.322 1.150,139.051 1.000,138.649 1.000 C 138.126 1.000,138.121 1.007,138.417 1.333 C 138.688 1.633,138.691 1.667,138.442 1.667 C 138.291 1.667,138.167 1.779,138.167 1.917 C 138.167 2.054,138.054 2.167,137.917 2.167 C 137.779 2.167,137.667 2.065,137.667 1.941 C 137.667 1.693,136.424 1.732,135.333 2.014 C 134.504 2.229,133.904 2.202,133.688 1.942 C 133.585 1.819,133.268 1.711,132.984 1.703 C 132.309 1.684,132.173 1.529,132.574 1.236 C 132.876 1.015,132.861 1.000,132.333 1.000 C 131.971 1.000,131.616 1.141,131.342 1.394 C 130.815 1.881,129.750 2.154,129.083 1.973 C 128.403 1.788,127.434 1.970,127.658 2.240 C 127.771 2.376,127.762 2.505,127.629 2.637 C 127.390 2.877,127.107 2.898,127.251 2.665 C 127.308 2.573,127.181 2.428,126.969 2.342 L 126.583 2.188 127.000 2.166 C 127.762 2.125,126.850 1.858,125.904 1.845 C 125.225 1.836,124.980 1.751,124.665 1.415 L 124.272 0.996 123.824 1.426 C 123.409 1.823,123.272 1.853,121.980 1.827 C 121.212 1.812,120.442 1.856,120.270 1.926 C 120.095 1.996,119.824 1.971,119.659 1.867 C 119.430 1.724,119.315 1.738,119.160 1.924 C 118.928 2.204,118.332 2.233,117.500 2.004 C 116.495 1.728,114.024 1.687,113.812 1.943 C 113.554 2.253,112.672 2.223,112.305 1.891 C 112.090 1.697,112.000 1.678,112.000 1.828 C 112.000 1.995,111.948 1.998,111.758 1.840 C 111.586 1.697,110.835 1.655,109.192 1.694 C 107.163 1.743,106.828 1.713,106.546 1.458 C 106.130 1.082,105.972 1.091,105.613 1.511 C 105.451 1.700,105.153 1.839,104.951 1.819 C 104.749 1.800,104.452 1.840,104.292 1.910 C 104.131 1.979,103.869 1.979,103.708 1.910 C 103.548 1.840,103.251 1.800,103.049 1.819 C 102.847 1.839,102.549 1.700,102.387 1.511 C 102.022 1.084,101.909 1.083,101.379 1.500 C 101.045 1.763,100.686 1.837,99.686 1.850 C 98.249 1.869,97.468 2.025,97.796 2.227 C 98.157 2.450,97.841 2.667,97.157 2.667 C 96.538 2.667,96.500 2.638,96.500 2.167 C 96.500 1.813,96.420 1.667,96.224 1.667 C 95.976 1.667,95.979 1.633,96.250 1.333 C 96.546 1.007,96.541 1.000,96.011 1.000 C 95.443 1.000,94.589 1.750,94.585 2.251 C 94.584 2.386,94.508 2.496,94.417 2.496 C 94.325 2.496,94.249 2.386,94.248 2.251 C 94.239 1.075,91.875 0.514,90.786 1.431 C 90.315 1.828,90.179 1.855,89.066 1.785 C 88.326 1.739,87.788 1.779,87.679 1.888 C 87.552 2.014,87.500 2.014,87.500 1.889 C 87.500 1.786,87.218 1.727,86.831 1.749 C 85.639 1.816,85.266 1.684,85.602 1.313 C 85.876 1.010,85.851 1.000,84.833 1.000 C 83.792 1.000,83.785 1.003,84.083 1.333 C 84.381 1.663,84.374 1.667,83.476 1.667 C 82.976 1.667,82.477 1.757,82.367 1.867 C 82.211 2.022,82.167 2.016,82.167 1.841 C 82.167 1.669,82.094 1.681,81.862 1.891 C 81.494 2.223,80.613 2.253,80.354 1.942 C 80.252 1.819,79.935 1.711,79.650 1.703 C 78.975 1.684,78.840 1.529,79.240 1.236 C 79.541 1.016,79.522 1.000,78.961 1.000 C 78.479 1.000,78.272 1.109,77.932 1.542 L 77.506 2.083 77.903 2.134 C 78.121 2.163,78.334 2.316,78.375 2.476 C 78.441 2.727,78.360 2.753,77.767 2.671 C 77.261 2.601,77.095 2.507,77.128 2.308 C 77.179 1.995,76.718 1.839,75.731 1.836 C 75.300 1.834,74.887 1.709,74.621 1.500 C 74.060 1.059,73.964 1.075,73.511 1.688 L 73.125 2.209 72.571 1.605 C 71.871 0.841,71.158 0.786,70.471 1.445 C 69.984 1.911,69.814 1.894,68.949 1.293 C 68.622 1.066,67.926 1.765,67.920 2.326 C 67.917 2.520,67.693 2.596,67.013 2.635 C 66.211 2.680,66.134 2.657,66.325 2.426 C 66.444 2.284,66.796 2.167,67.109 2.167 L 67.677 2.167 67.307 1.667 C 66.837 1.031,66.494 1.035,66.017 1.679 C 65.669 2.151,65.614 2.171,65.350 1.932 C 65.128 1.731,65.017 1.716,64.864 1.869 C 64.712 2.021,64.667 2.021,64.667 1.867 C 64.667 1.738,64.370 1.667,63.833 1.667 C 62.980 1.667,62.774 1.482,63.292 1.180 C 63.529 1.042,63.473 1.009,62.987 1.005 C 62.563 1.001,62.279 1.120,62.000 1.417 C 61.483 1.967,60.153 2.015,59.711 1.500 C 59.356 1.085,59.240 1.084,58.713 1.499 C 58.413 1.735,58.120 1.810,57.701 1.758 C 57.376 1.718,56.973 1.758,56.805 1.848 C 56.637 1.938,56.500 1.950,56.500 1.874 C 56.500 1.755,54.541 1.865,54.083 2.010 C 53.669 2.141,52.503 1.775,52.156 1.405 C 51.657 0.874,50.806 0.860,50.293 1.375 C 49.845 1.825,48.734 2.141,48.162 1.981 C 47.935 1.918,47.393 1.859,46.957 1.850 C 46.384 1.838,46.084 1.741,45.878 1.500 C 45.541 1.107,45.073 1.066,44.878 1.414 C 44.663 1.798,43.344 2.131,42.703 1.964 C 42.371 1.877,41.911 1.889,41.536 1.993 C 40.484 2.285,40.106 2.209,39.500 1.583 C 38.796 0.857,38.081 0.798,37.500 1.417 C 36.938 2.015,35.623 2.015,35.069 1.417 C 34.812 1.139,34.504 1.000,34.149 1.000 C 33.626 1.000,33.621 1.007,33.917 1.333 C 34.188 1.633,34.191 1.667,33.942 1.667 C 33.791 1.667,33.667 1.788,33.667 1.937 C 33.667 2.167,33.627 2.174,33.397 1.983 C 33.074 1.716,32.000 1.647,32.000 1.893 C 32.000 1.998,31.921 1.988,31.800 1.867 C 31.690 1.757,31.465 1.667,31.300 1.667 C 30.918 1.667,30.913 1.401,31.292 1.180 C 31.504 1.056,31.135 1.009,29.933 1.005 C 28.292 1.000,28.284 1.002,28.583 1.333 C 28.919 1.704,29.357 1.660,24.632 1.733 C 23.923 1.744,23.262 1.838,23.158 1.942 C 23.027 2.073,22.795 2.083,22.401 1.974 C 22.045 1.876,21.619 1.877,21.258 1.977 C 20.717 2.126,20.655 2.100,20.229 1.541 L 19.775 0.946 19.259 1.561 C 18.769 2.144,18.715 2.166,18.205 1.988 C 17.907 1.885,17.277 1.843,16.792 1.895 C 16.311 1.947,15.354 2.037,14.667 2.094 L 13.417 2.198 12.842 1.599 C 12.398 1.135,12.136 1.000,11.685 1.000 C 11.136 1.000,11.122 1.014,11.426 1.247 C 11.644 1.413,11.690 1.536,11.567 1.622 C 11.466 1.692,11.340 1.863,11.288 2.000 C 11.215 2.191,11.190 2.177,11.180 1.941 C 11.169 1.683,11.086 1.718,10.683 2.149 C 10.215 2.650,9.409 2.928,9.803 2.453 C 9.943 2.285,9.740 2.193,8.865 2.027 C 8.111 1.884,7.612 1.684,7.324 1.407 L 6.897 0.999 6.417 1.499 C 5.835 2.107,5.722 2.116,5.304 1.583 C 4.875 1.038,4.643 1.058,4.184 1.679 C 3.820 2.171,3.791 2.180,3.486 1.904 C 3.178 1.625,3.167 1.633,3.167 2.141 C 3.167 2.497,3.086 2.667,2.917 2.667 C 2.750 2.667,2.667 2.500,2.667 2.167 C 2.667 1.833,2.583 1.667,2.417 1.667 C 2.077 1.667,2.101 1.388,2.458 1.180 C 2.695 1.042,2.633 1.009,2.133 1.005 C 1.622 1.001,1.441 1.099,1.072 1.584 M153.155 2.425 C 153.164 2.182,153.215 2.148,153.356 2.289 C 153.497 2.431,153.476 2.548,153.273 2.751 C 153.123 2.901,153.000 2.943,153.000 2.845 C 153.000 2.747,152.878 2.667,152.730 2.667 C 152.501 2.667,152.493 2.626,152.680 2.401 C 152.881 2.159,152.912 2.163,153.022 2.442 C 153.137 2.733,153.144 2.732,153.155 2.425 M251.167 2.417 C 251.167 2.554,251.045 2.667,250.896 2.667 C 250.675 2.667,250.663 2.621,250.833 2.417 C 250.947 2.279,251.069 2.167,251.104 2.167 C 251.138 2.167,251.167 2.279,251.167 2.417 M272.733 2.724 C 272.843 2.809,272.795 2.825,272.611 2.766 C 272.443 2.711,272.228 2.667,272.133 2.667 C 272.033 2.667,272.054 2.553,272.182 2.398 C 272.360 2.184,272.419 2.176,272.477 2.357 C 272.517 2.481,272.632 2.647,272.733 2.724 M339.667 2.417 C 339.667 2.554,339.545 2.667,339.396 2.667 C 339.175 2.667,339.163 2.621,339.333 2.417 C 339.447 2.279,339.569 2.167,339.604 2.167 C 339.638 2.167,339.667 2.279,339.667 2.417 M367.667 2.417 C 367.667 2.554,367.592 2.667,367.500 2.667 C 367.408 2.667,367.333 2.554,367.333 2.417 C 367.333 2.279,367.408 2.167,367.500 2.167 C 367.592 2.167,367.667 2.279,367.667 2.417 M240.500 4.583 C 240.500 4.721,240.378 4.833,240.230 4.833 C 240.008 4.833,239.997 4.788,240.167 4.583 C 240.281 4.446,240.402 4.333,240.437 4.333 C 240.472 4.333,240.500 4.446,240.500 4.583 M239.500 5.583 C 239.500 5.721,239.378 5.833,239.230 5.833 C 239.008 5.833,238.997 5.788,239.167 5.583 C 239.281 5.446,239.402 5.333,239.437 5.333 C 239.472 5.333,239.500 5.446,239.500 5.583 M170.500 10.917 C 170.670 11.121,170.659 11.167,170.437 11.167 C 170.288 11.167,170.167 11.054,170.167 10.917 C 170.167 10.779,170.195 10.667,170.230 10.667 C 170.264 10.667,170.386 10.779,170.500 10.917 M184.333 29.083 C 184.503 29.288,184.492 29.333,184.270 29.333 C 184.122 29.333,184.000 29.221,184.000 29.083 C 184.000 28.946,184.028 28.833,184.063 28.833 C 184.098 28.833,184.219 28.946,184.333 29.083 M209.277 31.137 C 208.803 31.661,208.923 32.000,209.583 32.000 C 210.256 32.000,210.385 31.583,209.860 31.108 C 209.574 30.849,209.536 30.851,209.277 31.137 " stroke="none" fill="#ffffff20" fill-rule="evenodd"></path><path id="path3" d="M0.708 12.956 C 1.144 12.990,1.856 12.990,2.292 12.956 C 2.727 12.922,2.371 12.893,1.500 12.893 C 0.629 12.893,0.273 12.922,0.708 12.956 M397.708 12.956 C 398.144 12.990,398.856 12.990,399.292 12.956 C 399.727 12.922,399.371 12.893,398.500 12.893 C 397.629 12.893,397.273 12.922,397.708 12.956 M40.222 13.125 C 60.373 13.148,93.298 13.148,113.389 13.125 C 133.479 13.102,116.992 13.083,76.750 13.083 C 36.508 13.083,20.071 13.102,40.222 13.125 M287.542 13.125 C 307.502 13.148,340.165 13.148,360.125 13.125 C 380.085 13.102,363.754 13.083,323.833 13.083 C 283.912 13.083,267.581 13.102,287.542 13.125 M150.636 13.420 C 151.497 13.794,152.297 13.975,153.871 14.153 C 154.872 14.266,155.469 14.423,155.788 14.656 C 156.042 14.843,156.512 15.040,156.833 15.093 C 157.368 15.183,157.339 15.150,156.486 14.695 C 155.891 14.377,155.081 14.127,154.236 14.001 C 153.511 13.892,152.488 13.660,151.964 13.485 C 151.439 13.310,150.802 13.170,150.547 13.173 L 150.083 13.180 150.636 13.420 M249.273 13.438 C 249.011 13.580,248.224 13.799,247.523 13.924 L 246.250 14.151 247.333 14.084 C 248.741 13.997,249.523 13.838,249.833 13.576 C 249.971 13.459,250.271 13.330,250.500 13.288 C 250.820 13.230,250.782 13.208,250.333 13.196 C 250.012 13.187,249.536 13.296,249.273 13.438 M245.214 14.486 C 245.010 14.656,244.316 14.924,243.670 15.083 C 243.024 15.241,242.441 15.462,242.373 15.575 C 242.305 15.687,242.100 15.864,241.917 15.968 C 241.607 16.143,241.605 16.157,241.893 16.162 C 242.063 16.164,242.421 15.982,242.689 15.757 C 242.957 15.531,243.456 15.302,243.797 15.247 C 244.710 15.101,246.553 14.169,245.917 14.175 C 245.733 14.176,245.417 14.317,245.214 14.486 M158.092 15.637 C 158.454 15.896,159.069 16.199,159.458 16.311 C 159.848 16.422,160.167 16.590,160.167 16.683 C 160.167 16.776,160.572 17.037,161.067 17.264 C 161.563 17.491,162.010 17.787,162.062 17.922 C 162.114 18.056,162.272 18.167,162.413 18.167 C 162.554 18.167,162.894 18.373,163.168 18.625 C 164.013 19.401,164.146 19.500,164.344 19.500 C 164.450 19.500,165.166 20.148,165.935 20.940 C 166.704 21.732,167.333 22.309,167.333 22.222 C 167.333 22.025,165.716 20.333,165.528 20.333 C 165.452 20.333,165.294 20.154,165.177 19.935 C 165.059 19.716,164.790 19.458,164.579 19.362 C 164.367 19.265,163.599 18.732,162.873 18.176 C 162.146 17.621,161.480 17.167,161.392 17.167 C 161.304 17.167,160.936 16.952,160.575 16.690 C 160.213 16.428,159.692 16.160,159.417 16.094 C 159.142 16.028,158.678 15.792,158.386 15.570 C 158.094 15.348,157.761 15.167,157.645 15.167 C 157.529 15.167,157.730 15.378,158.092 15.637 M240.429 16.671 C 240.069 16.944,239.688 17.167,239.583 17.167 C 239.478 17.167,238.806 17.654,238.090 18.250 C 237.373 18.846,236.729 19.333,236.660 19.333 C 236.476 19.333,233.833 21.939,233.833 22.121 C 233.833 22.205,233.585 22.568,233.282 22.928 C 232.979 23.289,232.478 23.958,232.169 24.417 C 231.860 24.875,231.395 25.562,231.137 25.944 C 230.878 26.326,230.667 26.693,230.667 26.761 C 230.667 27.063,231.412 26.183,231.699 25.542 C 231.873 25.152,232.079 24.833,232.155 24.833 C 232.232 24.833,232.413 24.586,232.557 24.283 C 232.700 23.980,233.044 23.496,233.321 23.206 C 233.597 22.917,233.871 22.492,233.928 22.263 C 233.986 22.033,234.174 21.801,234.346 21.746 C 234.519 21.691,234.781 21.440,234.930 21.189 C 235.079 20.937,235.362 20.660,235.559 20.574 C 235.756 20.487,235.989 20.252,236.077 20.051 C 236.167 19.846,236.552 19.565,236.950 19.413 C 237.342 19.263,237.819 18.922,238.009 18.654 C 238.200 18.386,238.461 18.167,238.589 18.167 C 238.717 18.167,238.899 18.023,238.993 17.847 C 239.087 17.671,239.418 17.443,239.729 17.340 C 240.039 17.238,240.426 17.007,240.589 16.827 C 240.752 16.647,240.981 16.500,241.099 16.500 C 241.217 16.500,241.360 16.425,241.417 16.333 C 241.624 15.998,241.066 16.189,240.429 16.671 M167.339 22.615 C 167.347 22.820,167.772 23.339,167.860 23.251 C 167.903 23.208,168.147 23.504,168.403 23.909 C 168.658 24.313,168.962 24.680,169.077 24.724 C 169.192 24.769,169.330 25.017,169.384 25.277 C 169.439 25.537,169.658 25.938,169.872 26.167 C 170.086 26.396,170.394 26.933,170.555 27.360 C 170.717 27.788,170.959 28.179,171.092 28.230 C 171.436 28.362,171.391 28.104,171.009 27.759 C 170.831 27.597,170.639 27.252,170.581 26.991 C 170.524 26.731,170.257 26.241,169.989 25.902 C 169.720 25.564,169.500 25.219,169.500 25.135 C 169.500 24.963,167.762 22.745,167.501 22.584 C 167.409 22.527,167.336 22.541,167.339 22.615 M230.356 27.583 C 230.240 27.904,230.085 28.167,230.012 28.167 C 229.939 28.167,229.748 28.523,229.588 28.958 C 229.428 29.394,229.172 29.863,229.018 30.000 C 228.865 30.137,228.645 30.477,228.531 30.754 C 228.417 31.032,228.101 31.519,227.829 31.838 C 227.557 32.156,227.334 32.486,227.334 32.571 C 227.334 32.657,227.090 32.965,226.792 33.257 C 225.836 34.192,225.333 34.774,225.333 34.943 C 225.333 35.092,223.703 36.704,222.114 38.125 C 221.781 38.423,221.615 38.667,221.745 38.667 C 221.875 38.667,222.079 38.535,222.199 38.375 C 222.319 38.214,222.689 37.880,223.021 37.632 C 223.825 37.033,224.861 35.997,225.348 35.308 C 225.565 35.001,225.913 34.578,226.121 34.367 C 226.330 34.157,226.500 33.874,226.500 33.738 C 226.500 33.603,226.691 33.419,226.925 33.330 C 227.165 33.239,227.424 32.956,227.520 32.681 C 227.613 32.413,227.801 32.151,227.937 32.099 C 228.073 32.047,228.333 31.665,228.516 31.252 C 228.700 30.838,229.033 30.315,229.258 30.091 C 229.483 29.866,229.668 29.547,229.670 29.383 C 229.671 29.218,229.896 28.753,230.170 28.350 C 230.443 27.947,230.667 27.478,230.667 27.308 C 230.667 26.861,230.594 26.926,230.356 27.583 M171.348 28.667 C 171.353 28.804,171.421 29.067,171.500 29.250 L 171.643 29.583 171.652 29.250 C 171.657 29.067,171.589 28.804,171.500 28.667 C 171.356 28.444,171.339 28.444,171.348 28.667 M171.667 29.880 C 171.667 30.025,171.798 30.188,171.958 30.241 C 172.119 30.295,172.419 30.694,172.625 31.128 C 173.132 32.194,173.971 33.333,174.250 33.333 C 174.375 33.333,174.531 33.500,174.595 33.704 C 174.870 34.568,178.883 38.671,179.448 38.665 C 179.522 38.664,179.784 38.908,180.029 39.206 C 180.274 39.504,180.514 39.708,180.563 39.659 C 180.679 39.544,180.057 38.934,178.500 37.635 C 176.917 36.314,177.057 36.454,175.774 34.902 C 175.175 34.177,174.456 33.358,174.176 33.083 C 173.896 32.808,173.667 32.501,173.667 32.401 C 173.667 32.300,173.522 32.087,173.344 31.926 C 173.167 31.766,172.875 31.323,172.696 30.942 C 172.308 30.118,171.667 29.456,171.667 29.880 M220.818 39.131 C 220.287 39.687,218.945 40.667,218.715 40.667 C 218.622 40.667,218.263 40.892,217.917 41.167 C 217.571 41.442,217.200 41.667,217.093 41.667 C 216.986 41.667,216.603 41.882,216.241 42.144 C 215.879 42.407,215.321 42.709,215.000 42.815 C 213.874 43.186,212.338 44.037,212.996 43.925 C 213.314 43.871,213.839 43.648,214.163 43.429 C 214.486 43.210,214.990 42.982,215.283 42.921 C 215.576 42.860,216.089 42.594,216.423 42.329 C 216.756 42.063,217.191 41.797,217.390 41.737 C 217.588 41.677,217.901 41.491,218.086 41.322 C 218.270 41.154,218.696 40.901,219.033 40.760 C 219.369 40.620,219.746 40.359,219.871 40.181 C 219.996 40.003,220.292 39.769,220.530 39.660 C 220.768 39.552,221.045 39.284,221.145 39.065 C 221.370 38.570,221.351 38.574,220.818 39.131 M181.117 40.073 C 181.282 40.296,181.741 40.604,182.137 40.758 C 182.534 40.911,182.897 41.137,182.944 41.260 C 182.991 41.383,183.377 41.616,183.801 41.778 C 184.226 41.941,184.702 42.202,184.859 42.359 C 185.142 42.642,186.332 43.057,186.469 42.920 C 186.508 42.881,186.324 42.797,186.061 42.733 C 185.798 42.669,185.379 42.446,185.129 42.239 C 184.879 42.031,184.451 41.812,184.177 41.752 C 183.903 41.692,183.507 41.462,183.298 41.241 C 183.088 41.020,182.829 40.838,182.721 40.836 C 182.614 40.835,182.182 40.571,181.761 40.250 C 180.860 39.562,180.710 39.521,181.117 40.073 M186.667 43.144 C 186.667 43.449,187.375 43.811,188.167 43.911 L 188.917 44.006 188.247 43.782 C 187.878 43.659,187.372 43.424,187.122 43.260 C 186.864 43.091,186.667 43.040,186.667 43.144 M189.214 44.116 C 189.378 44.159,189.693 44.375,189.915 44.597 C 190.225 44.907,190.484 44.996,191.034 44.982 L 191.750 44.964 191.000 44.800 C 190.588 44.710,190.095 44.493,189.906 44.318 C 189.717 44.143,189.417 44.009,189.239 44.019 C 188.951 44.037,188.949 44.047,189.214 44.116 M211.275 44.333 C 210.923 44.509,210.323 44.723,209.942 44.809 L 209.250 44.964 209.850 44.982 C 210.567 45.003,211.434 44.728,211.981 44.307 C 212.499 43.907,212.100 43.922,211.275 44.333 M192.250 45.119 C 192.433 45.163,192.808 45.300,193.083 45.422 C 193.949 45.808,194.885 45.999,195.833 45.982 L 196.750 45.965 195.500 45.758 C 194.813 45.644,193.922 45.427,193.521 45.275 C 193.120 45.124,192.595 45.009,192.354 45.019 C 192.009 45.035,191.987 45.056,192.250 45.119 M207.417 45.349 C 207.050 45.534,206.300 45.726,205.750 45.777 C 204.344 45.908,204.344 46.051,205.750 45.971 C 206.482 45.930,207.196 45.772,207.667 45.546 C 208.079 45.349,208.529 45.152,208.667 45.107 C 208.804 45.063,208.729 45.023,208.500 45.020 C 208.271 45.016,207.783 45.164,207.417 45.349 M199.051 46.124 C 200.041 46.154,201.616 46.154,202.551 46.124 C 203.485 46.095,202.675 46.070,200.750 46.071 C 198.825 46.071,198.060 46.095,199.051 46.124 " stroke="none" fill="#f4f4f4" fill-rule="evenodd"></path><path id="path4" d="" stroke="none" fill="#100f8fc" fill-rule="evenodd"></path></g></svg>